<svg version="1.1" xmlns="http://www.w3.org/2000/svg" viewBox="0 0 612.15625 382.6825294893199" width="612.15625" height="382.6825294893199">
  <!-- svg-source:excalidraw -->
  
  <defs>
    <style class="style-fonts">
      @font-face {
        font-family: "Virgil";
        src: url("https://excalidraw.com/Virgil.woff2");
      }
      @font-face {
        font-family: "Cascadia";
        src: url("https://excalidraw.com/Cascadia.woff2");
      }
      @font-face {
        font-family: "Assistant";
        src: url("https://excalidraw.com/Assistant-Regular.woff2");
      }
    </style>
    
  </defs>
  <g stroke-linecap="round" transform="translate(10 59.83877948931993) rotate(0 125.09375 86.140625)"><path d="M105.6 1.71 C119.39 -1.04, 135.72 0.22, 150.4 2.37 C165.09 4.51, 180.97 8.89, 193.71 14.57 C206.45 20.26, 218 28, 226.84 36.46 C235.67 44.93, 243.03 55.56, 246.72 65.36 C250.4 75.16, 250.79 85.26, 248.95 95.25 C247.11 105.24, 242.49 115.93, 235.66 125.3 C228.84 134.68, 219.38 144.52, 208 151.5 C196.61 158.48, 181.8 163.68, 167.36 167.21 C152.91 170.73, 136.48 172.98, 121.35 172.66 C106.21 172.34, 90.41 169.26, 76.52 165.29 C62.64 161.32, 48.74 155.85, 38.03 148.85 C27.32 141.86, 18.5 132.86, 12.25 123.33 C6.01 113.8, 1.56 102, 0.57 91.66 C-0.41 81.32, 1.92 71.12, 6.37 61.28 C10.81 51.45, 17.86 40.75, 27.24 32.63 C36.61 24.51, 46.86 18.03, 62.61 12.56 C78.35 7.09, 109.12 1.48, 121.69 -0.19 C134.25 -1.85, 137.86 1.06, 138.01 2.56 M133.34 1.5 C147.78 0.84, 164.89 3.84, 178.49 8.19 C192.1 12.54, 204.74 20.1, 214.97 27.58 C225.21 35.07, 234.18 43.94, 239.9 53.12 C245.63 62.29, 249.02 72.56, 249.32 82.64 C249.61 92.71, 246.63 103.56, 241.69 113.59 C236.74 123.61, 229.27 134.77, 219.64 142.79 C210 150.81, 197.1 156.98, 183.87 161.71 C170.64 166.43, 155.36 169.71, 140.27 171.14 C125.17 172.58, 107.89 172.81, 93.32 170.33 C78.74 167.85, 64.86 162.41, 52.84 156.26 C40.81 150.1, 29.48 142.17, 21.19 133.4 C12.9 124.63, 6.28 113.78, 3.08 103.63 C-0.12 93.49, -0.06 82.79, 2 72.53 C4.06 62.26, 7.96 50.86, 15.46 42.05 C22.97 33.23, 35.08 25.82, 47.02 19.63 C58.96 13.44, 73.01 8.36, 87.11 4.9 C101.21 1.45, 123.88 -0.78, 131.6 -1.11 C139.32 -1.44, 133.33 1.39, 133.42 2.92" stroke="#1e1e1e" stroke-width="2" fill="none"></path></g><g transform="translate(39.65625 110.52627948931993) rotate(0 93.70833587646484 37.5)"><text x="0" y="17.52" font-family="Virgil, Segoe UI Emoji" font-size="20px" fill="#1e1e1e" text-anchor="start" style="white-space: pre;" direction="ltr" dominant-baseline="alphabetic">Upgrade de versão</text><text x="0" y="42.519999999999996" font-family="Virgil, Segoe UI Emoji" font-size="20px" fill="#1e1e1e" text-anchor="start" style="white-space: pre;" direction="ltr" dominant-baseline="alphabetic"></text><text x="0" y="67.52" font-family="Virgil, Segoe UI Emoji" font-size="20px" fill="#1e1e1e" text-anchor="start" style="white-space: pre;" direction="ltr" dominant-baseline="alphabetic">Pacotes ou Python</text></g><g stroke-linecap="round" transform="translate(386.15625 77.52627948931993) rotate(0 108 63.5)"><path d="M147.46 3.39 C160.09 5.28, 172.67 12.37, 182.66 17.98 C192.66 23.59, 201.73 29.61, 207.43 37.07 C213.14 44.53, 216.85 54.56, 216.89 62.72 C216.93 70.87, 212.8 78.44, 207.7 85.99 C202.6 93.54, 195.61 102.02, 186.29 108.02 C176.97 114.02, 164.59 118.98, 151.76 122.01 C138.94 125.04, 123.2 125.92, 109.34 126.19 C95.49 126.46, 81.41 126.53, 68.65 123.64 C55.89 120.75, 42.82 114.6, 32.76 108.85 C22.7 103.1, 13.65 96.48, 8.28 89.12 C2.91 81.76, 0.57 72.92, 0.54 64.69 C0.5 56.47, 3.09 47.15, 8.09 39.76 C13.08 32.38, 21.25 26.12, 30.5 20.39 C39.75 14.67, 51.02 8.74, 63.59 5.4 C76.16 2.06, 91.35 0.3, 105.93 0.36 C120.5 0.43, 142.88 4.47, 151.04 5.78 C159.19 7.09, 155.55 7.27, 154.85 8.23 M153.35 6.93 C165.97 9.4, 179.2 15.08, 188.31 20.99 C197.41 26.89, 203.42 35.17, 207.95 42.39 C212.49 49.61, 215.84 56.66, 215.54 64.31 C215.23 71.96, 211.63 80.45, 206.11 88.27 C200.6 96.1, 192.64 105.42, 182.44 111.25 C172.24 117.08, 158.03 120.57, 144.91 123.26 C131.8 125.96, 117.51 127.59, 103.75 127.43 C89.99 127.26, 74.8 125.77, 62.33 122.26 C49.86 118.75, 38.32 112.69, 28.93 106.37 C19.54 100.04, 10.98 91.73, 6 84.31 C1.03 76.89, -1.5 69.81, -0.93 61.84 C-0.37 53.88, 3.48 44.05, 9.4 36.49 C15.32 28.93, 24.32 21.69, 34.58 16.49 C44.83 11.29, 58.06 8.1, 70.92 5.3 C83.78 2.5, 98 -0.17, 111.74 -0.32 C125.49 -0.47, 146.55 3.45, 153.39 4.43 C160.24 5.4, 153.65 4.58, 152.81 5.54" stroke="#1e1e1e" stroke-width="2" fill="none"></path></g><g transform="translate(415.8125 128.21377948931993) rotate(0 85.08333587646484 12.5)"><text x="0" y="17.52" font-family="Virgil, Segoe UI Emoji" font-size="20px" fill="#1e1e1e" text-anchor="start" style="white-space: pre;" direction="ltr" dominant-baseline="alphabetic">Triagem / Ajuste</text></g><g stroke-linecap="round" transform="translate(210.75 245.68252948931993) rotate(0 108.00000000000006 63.5)"><path d="M128.58 2.22 C141.48 2.88, 156.22 6.57, 167.83 10.99 C179.44 15.42, 190.38 21.99, 198.24 28.76 C206.09 35.54, 212.35 43.75, 214.97 51.64 C217.59 59.53, 216.73 68.04, 213.96 76.09 C211.19 84.14, 206.1 93.21, 198.35 99.94 C190.59 106.66, 179.09 112.21, 167.44 116.41 C155.78 120.62, 141.88 123.55, 128.41 125.16 C114.94 126.77, 100.23 127.59, 86.63 126.07 C73.03 124.55, 58.41 120.66, 46.8 116.03 C35.19 111.41, 24.49 105.18, 16.98 98.33 C9.47 91.48, 4.15 82.74, 1.74 74.94 C-0.68 67.15, -0.41 59.46, 2.5 51.57 C5.41 43.68, 11.39 34.37, 19.19 27.6 C27 20.84, 37.79 15.22, 49.3 10.98 C60.82 6.74, 73.55 3.59, 88.26 2.15 C102.98 0.72, 128.17 1.68, 137.6 2.36 C147.02 3.05, 145.18 5.07, 144.8 6.25 M161.04 9.02 C173.27 11.61, 182.23 17.59, 190.72 23.58 C199.22 29.58, 207.97 37.1, 211.98 44.99 C215.99 52.87, 216.56 62.63, 214.78 70.9 C213.01 79.16, 207.99 87.55, 201.34 94.56 C194.69 101.58, 185.34 107.99, 174.87 112.96 C164.4 117.94, 151.76 121.98, 138.52 124.39 C125.28 126.8, 109.17 128.44, 95.43 127.42 C81.69 126.4, 68.15 122.12, 56.1 118.27 C44.04 114.43, 31.71 110.7, 23.07 104.35 C14.43 98, 7.96 88.31, 4.26 80.16 C0.56 72.01, -0.45 63.19, 0.85 55.47 C2.16 47.75, 5.75 40.82, 12.09 33.85 C18.43 26.88, 28.01 18.87, 38.88 13.65 C49.74 8.42, 63.78 4.7, 77.26 2.5 C90.75 0.3, 106.25 -0.59, 119.8 0.42 C133.35 1.43, 151.95 6.98, 158.57 8.58 C165.2 10.19, 160.22 9.06, 159.53 10.06" stroke="#1e1e1e" stroke-width="2" fill="none"></path></g><g transform="translate(280.40625 295.3700294893199) rotate(0 30.058332443237305 12.5)"><text x="0" y="17.52" font-family="Virgil, Segoe UI Emoji" font-size="20px" fill="#1e1e1e" text-anchor="start" style="white-space: pre;" direction="ltr" dominant-baseline="alphabetic">Teste</text></g><g stroke-linecap="round"><g transform="translate(425.479898539181 296.0779590627253) rotate(0 77.58817573040949 -53.2801830409058)"><path d="M-0.37 0.12 C25.26 -2.9, 129.05 -0.06, 154.48 -17.7 C179.91 -35.34, 152.89 -90.99, 152.21 -105.73 M1.63 -0.86 C27.6 -3.75, 131.76 1.44, 156.82 -16.36 C181.88 -34.15, 153.1 -92.89, 152 -107.64" stroke="#1e1e1e" stroke-width="2" fill="none"></path></g><g transform="translate(425.479898539181 296.0779590627253) rotate(0 77.58817573040949 -53.2801830409058)"><path d="M166.45 -87.25 C161.44 -95.7, 155.49 -100.04, 152 -107.64 M166.45 -87.25 C162.06 -94.1, 155.2 -101.91, 152 -107.64" stroke="#1e1e1e" stroke-width="2" fill="none"></path></g><g transform="translate(425.479898539181 296.0779590627253) rotate(0 77.58817573040949 -53.2801830409058)"><path d="M149.96 -82.73 C150.79 -92.74, 150.7 -98.69, 152 -107.64 M149.96 -82.73 C151.68 -91.3, 150.9 -100.78, 152 -107.64" stroke="#1e1e1e" stroke-width="2" fill="none"></path></g></g><mask></mask><g stroke-linecap="round"><g transform="translate(81.65082613221352 226.72143413637863) rotate(0 62.51849773093011 47.318083109164945)"><path d="M0.35 -0.21 C5.26 15.4, 7.37 79.45, 28.3 94.82 C49.23 110.19, 109.65 92.46, 125.92 91.98 M-0.93 -1.37 C4.47 14.98, 9.55 81.22, 30.64 96.45 C51.73 111.68, 109.62 91.13, 125.62 90.01" stroke="#1e1e1e" stroke-width="2" fill="none"></path></g><g transform="translate(81.65082613221352 226.72143413637863) rotate(0 62.51849773093011 47.318083109164945)"><path d="M104.28 103.04 C108.18 99.13, 113.21 99.11, 125.62 90.01 M104.28 103.04 C111.82 98.88, 119.81 93.71, 125.62 90.01" stroke="#1e1e1e" stroke-width="2" fill="none"></path></g><g transform="translate(81.65082613221352 226.72143413637863) rotate(0 62.51849773093011 47.318083109164945)"><path d="M100.9 86.28 C105.64 85.79, 111.37 89.21, 125.62 90.01 M100.9 86.28 C109.77 88.12, 118.97 88.97, 125.62 90.01" stroke="#1e1e1e" stroke-width="2" fill="none"></path></g></g><mask></mask><g stroke-linecap="round"><g transform="translate(545.65625 115.02449993265125) rotate(0 -241.578125 -69.6732225432311)"><path d="M1.18 -37.21 C-11.73 -48.23, -1.7 -94.79, -76.94 -102.78 C-152.18 -110.76, -382.62 -95.72, -450.27 -85.11 C-517.92 -74.51, -477.22 -46.87, -482.84 -39.14 M0.34 -38.47 C-12.24 -49.32, 0.6 -93.72, -74.64 -101.37 C-149.88 -109.01, -383.13 -94.89, -451.09 -84.35 C-519.06 -73.81, -477.24 -45.84, -482.43 -38.15" stroke="#1e1e1e" stroke-width="2" fill="none"></path></g><g transform="translate(545.65625 115.02449993265125) rotate(0 -241.578125 -69.6732225432311)"><path d="M-497.96 -57.74 C-493.24 -52.43, -487.6 -44.54, -482.43 -38.15 M-497.96 -57.74 C-495.31 -53.4, -491.1 -49.42, -482.43 -38.15" stroke="#1e1e1e" stroke-width="2" fill="none"></path></g><g transform="translate(545.65625 115.02449993265125) rotate(0 -241.578125 -69.6732225432311)"><path d="M-481.74 -63.14 C-482.61 -55.8, -482.58 -46.05, -482.43 -38.15 M-481.74 -63.14 C-482.51 -57.69, -481.73 -52.57, -482.43 -38.15" stroke="#1e1e1e" stroke-width="2" fill="none"></path></g></g><mask></mask><g stroke-linecap="round"><g transform="translate(226.5 138.99032227703495) rotate(0 95.5 -66.02889639385751)"><path d="M-0.84 -51.61 C12.36 -57.78, 46.21 -88.44, 78.3 -87.34 C110.39 -86.24, 172.79 -51.84, 191.7 -44.99 M0.92 -49.38 C14.59 -55.43, 48.91 -86.94, 80.64 -85.98 C112.38 -85.02, 172.67 -50.34, 191.31 -43.63" stroke="#1e1e1e" stroke-width="2" fill="none"></path></g><g transform="translate(226.5 138.99032227703495) rotate(0 95.5 -66.02889639385751)"><path d="M166.39 -45.61 C170.8 -46.15, 177.09 -43.37, 191.31 -43.63 M166.39 -45.61 C174.82 -44.47, 182.63 -43.53, 191.31 -43.63" stroke="#1e1e1e" stroke-width="2" fill="none"></path></g><g transform="translate(226.5 138.99032227703495) rotate(0 95.5 -66.02889639385751)"><path d="M173.49 -61.16 C176.37 -58.24, 181.06 -51.94, 191.31 -43.63 M173.49 -61.16 C179.85 -55.33, 185.48 -49.63, 191.31 -43.63" stroke="#1e1e1e" stroke-width="2" fill="none"></path></g></g><mask></mask><g stroke-linecap="round"><g transform="translate(470.52283237523875 203.99192273198688) rotate(0 -38.41404283268491 26.534634021950694)"><path d="M0.86 0.37 C-11.83 9.21, -63.23 45.09, -76.05 53.81 M-0.15 -0.49 C-12.93 7.95, -63.87 43.03, -76.59 52.08" stroke="#1e1e1e" stroke-width="2" fill="none"></path></g><g transform="translate(470.52283237523875 203.99192273198688) rotate(0 -38.41404283268491 26.534634021950694)"><path d="M-62.22 31.62 C-65.84 39.23, -69.58 45.36, -76.59 52.08 M-62.22 31.62 C-66.69 37.1, -70.18 42.83, -76.59 52.08" stroke="#1e1e1e" stroke-width="2" fill="none"></path></g><g transform="translate(470.52283237523875 203.99192273198688) rotate(0 -38.41404283268491 26.534634021950694)"><path d="M-52.43 45.65 C-59.12 49.06, -65.83 50.94, -76.59 52.08 M-52.43 45.65 C-59.45 47.45, -65.56 49.44, -76.59 52.08" stroke="#1e1e1e" stroke-width="2" fill="none"></path></g></g><mask></mask><g stroke-linecap="round"><g transform="translate(228.10243152977512 273.3636467243862) rotate(0 -17.77561283438928 -19.61051595846658)"><path d="M-0.07 -0.03 C-6.05 -6.73, -28.94 -32.89, -34.79 -39.57 M-1.56 -1.09 C-7.74 -7.68, -29.64 -31.86, -35.34 -38.22" stroke="#1e1e1e" stroke-width="2" fill="none"></path></g><g transform="translate(228.10243152977512 273.3636467243862) rotate(0 -17.77561283438928 -19.61051595846658)"><path d="M-13.26 -26.51 C-22.07 -29.87, -31.3 -35.13, -35.34 -38.22 M-13.26 -26.51 C-18.2 -30.04, -22.63 -31.19, -35.34 -38.22" stroke="#1e1e1e" stroke-width="2" fill="none"></path></g><g transform="translate(228.10243152977512 273.3636467243862) rotate(0 -17.77561283438928 -19.61051595846658)"><path d="M-25.95 -15.05 C-29.83 -22.92, -34.06 -32.69, -35.34 -38.22 M-25.95 -15.05 C-28.1 -21.19, -29.65 -24.95, -35.34 -38.22" stroke="#1e1e1e" stroke-width="2" fill="none"></path></g></g><mask></mask></svg>