<?xml version="1.0" encoding="UTF-8" standalone="no"?>
<!DOCTYPE svg PUBLIC "-//W3C//DTD SVG 1.1//EN"
 "http://www.w3.org/Graphics/SVG/1.1/DTD/svg11.dtd">
<!-- Generated by graphviz version 9.0.0 (20230911.1827)
 -->
<!-- Pages: 1 -->
<svg width="699pt" height="287pt"
 viewBox="0.00 0.00 699.40 286.95" xmlns="http://www.w3.org/2000/svg" xmlns:xlink="http://www.w3.org/1999/xlink">
<g id="graph0" class="graph" transform="scale(1 1) rotate(0) translate(4 282.95)">
<polygon fill="white" stroke="none" points="-4,4 -4,-282.95 695.4,-282.95 695.4,4 -4,4"/>
<!-- pip -->
<g id="node1" class="node">
<title>pip</title>
<ellipse fill="none" stroke="black" cx="28.28" cy="-139.47" rx="28.28" ry="28.99"/>
<text text-anchor="middle" x="28.28" y="-142.67" font-family="Times,serif" font-size="14.00">pip</text>
<text text-anchor="middle" x="28.28" y="-126.17" font-family="Times,serif" font-size="14.00">24.0</text>
</g>
<!-- packaging -->
<g id="node2" class="node">
<title>packaging</title>
<ellipse fill="none" stroke="black" cx="125.28" cy="-139.47" rx="50.56" ry="28.99"/>
<text text-anchor="middle" x="125.28" y="-142.67" font-family="Times,serif" font-size="14.00">packaging</text>
<text text-anchor="middle" x="125.28" y="-126.17" font-family="Times,serif" font-size="14.00">24.1</text>
</g>
<!-- markupsafe -->
<g id="node3" class="node">
<title>markupsafe</title>
<ellipse fill="none" stroke="black" cx="605.28" cy="-28.99" rx="59.04" ry="28.99"/>
<text text-anchor="middle" x="605.28" y="-32.19" font-family="Times,serif" font-size="14.00">MarkupSafe</text>
<text text-anchor="middle" x="605.28" y="-15.69" font-family="Times,serif" font-size="14.00">2.1.5</text>
</g>
<!-- itsdangerous -->
<g id="node4" class="node">
<title>itsdangerous</title>
<ellipse fill="none" stroke="black" cx="253.28" cy="-139.47" rx="59.57" ry="28.99"/>
<text text-anchor="middle" x="253.28" y="-142.67" font-family="Times,serif" font-size="14.00">itsdangerous</text>
<text text-anchor="middle" x="253.28" y="-126.17" font-family="Times,serif" font-size="14.00">2.2.0</text>
</g>
<!-- graphviz -->
<g id="node5" class="node">
<title>graphviz</title>
<ellipse fill="none" stroke="black" cx="544.28" cy="-249.96" rx="44.72" ry="28.99"/>
<text text-anchor="middle" x="544.28" y="-253.16" font-family="Times,serif" font-size="14.00">graphviz</text>
<text text-anchor="middle" x="544.28" y="-236.66" font-family="Times,serif" font-size="14.00">0.20.3</text>
</g>
<!-- click -->
<g id="node6" class="node">
<title>click</title>
<ellipse fill="none" stroke="black" cx="362.28" cy="-139.47" rx="30.94" ry="28.99"/>
<text text-anchor="middle" x="362.28" y="-142.67" font-family="Times,serif" font-size="14.00">click</text>
<text text-anchor="middle" x="362.28" y="-126.17" font-family="Times,serif" font-size="14.00">8.1.7</text>
</g>
<!-- blinker -->
<g id="node7" class="node">
<title>blinker</title>
<ellipse fill="none" stroke="black" cx="449.28" cy="-139.47" rx="38.36" ry="28.99"/>
<text text-anchor="middle" x="449.28" y="-142.67" font-family="Times,serif" font-size="14.00">blinker</text>
<text text-anchor="middle" x="449.28" y="-126.17" font-family="Times,serif" font-size="14.00">1.8.2</text>
</g>
<!-- werkzeug -->
<g id="node8" class="node">
<title>werkzeug</title>
<ellipse fill="none" stroke="black" cx="555.28" cy="-139.47" rx="50.03" ry="28.99"/>
<text text-anchor="middle" x="555.28" y="-142.67" font-family="Times,serif" font-size="14.00">Werkzeug</text>
<text text-anchor="middle" x="555.28" y="-126.17" font-family="Times,serif" font-size="14.00">3.0.3</text>
</g>
<!-- werkzeug&#45;&gt;markupsafe -->
<g id="edge1" class="edge">
<title>werkzeug&#45;&gt;markupsafe</title>
<path fill="none" stroke="black" d="M566.63,-110.93C571.25,-99.98 576.75,-87.32 582.03,-75.98 583.3,-73.26 584.64,-70.47 586,-67.66"/>
<polygon fill="black" stroke="black" points="589.02,-69.45 590.31,-58.93 582.74,-66.35 589.02,-69.45"/>
<text text-anchor="middle" x="604.41" y="-79.18" font-family="Times,serif" font-size="14.00">&gt;=2.1.1</text>
</g>
<!-- pipdeptree -->
<g id="node9" class="node">
<title>pipdeptree</title>
<ellipse fill="none" stroke="black" cx="77.28" cy="-249.96" rx="51.62" ry="28.99"/>
<text text-anchor="middle" x="77.28" y="-253.16" font-family="Times,serif" font-size="14.00">pipdeptree</text>
<text text-anchor="middle" x="77.28" y="-236.66" font-family="Times,serif" font-size="14.00">2.23.0</text>
</g>
<!-- pipdeptree&#45;&gt;pip -->
<g id="edge3" class="edge">
<title>pipdeptree&#45;&gt;pip</title>
<path fill="none" stroke="black" d="M56.31,-223.25C51.85,-216.9 47.53,-209.91 44.28,-202.97 40.84,-195.58 38.06,-187.35 35.85,-179.35"/>
<polygon fill="black" stroke="black" points="39.28,-178.62 33.45,-169.77 32.48,-180.32 39.28,-178.62"/>
<text text-anchor="middle" x="69.78" y="-189.67" font-family="Times,serif" font-size="14.00">&gt;=23.1.2</text>
</g>
<!-- pipdeptree&#45;&gt;packaging -->
<g id="edge2" class="edge">
<title>pipdeptree&#45;&gt;packaging</title>
<path fill="none" stroke="black" d="M89.52,-221.3C95.28,-208.3 102.23,-192.58 108.47,-178.48"/>
<polygon fill="black" stroke="black" points="111.61,-180.02 112.46,-169.46 105.21,-177.19 111.61,-180.02"/>
<text text-anchor="middle" x="124.53" y="-189.67" font-family="Times,serif" font-size="14.00">&gt;=23.1</text>
</g>
<!-- jinja2 -->
<g id="node10" class="node">
<title>jinja2</title>
<ellipse fill="none" stroke="black" cx="657.28" cy="-139.47" rx="34.12" ry="28.99"/>
<text text-anchor="middle" x="657.28" y="-142.67" font-family="Times,serif" font-size="14.00">Jinja2</text>
<text text-anchor="middle" x="657.28" y="-126.17" font-family="Times,serif" font-size="14.00">3.1.4</text>
</g>
<!-- jinja2&#45;&gt;markupsafe -->
<g id="edge4" class="edge">
<title>jinja2&#45;&gt;markupsafe</title>
<path fill="none" stroke="black" d="M644.7,-112.21C638.31,-98.89 630.44,-82.47 623.41,-67.81"/>
<polygon fill="black" stroke="black" points="626.61,-66.39 619.14,-58.89 620.3,-69.42 626.61,-66.39"/>
<text text-anchor="middle" x="652.16" y="-79.18" font-family="Times,serif" font-size="14.00">&gt;=2.0</text>
</g>
<!-- flask -->
<g id="node11" class="node">
<title>flask</title>
<ellipse fill="none" stroke="black" cx="449.28" cy="-249.96" rx="32" ry="28.99"/>
<text text-anchor="middle" x="449.28" y="-253.16" font-family="Times,serif" font-size="14.00">Flask</text>
<text text-anchor="middle" x="449.28" y="-236.66" font-family="Times,serif" font-size="14.00">3.0.3</text>
</g>
<!-- flask&#45;&gt;itsdangerous -->
<g id="edge7" class="edge">
<title>flask&#45;&gt;itsdangerous</title>
<path fill="none" stroke="black" d="M419.52,-238.32C397.3,-229.91 366.51,-217.23 341.03,-202.97 324.7,-193.82 307.73,-182.28 293.11,-171.61"/>
<polygon fill="black" stroke="black" points="295.21,-168.8 285.09,-165.66 291.04,-174.43 295.21,-168.8"/>
<text text-anchor="middle" x="363.41" y="-189.67" font-family="Times,serif" font-size="14.00">&gt;=2.1.2</text>
</g>
<!-- flask&#45;&gt;click -->
<g id="edge8" class="edge">
<title>flask&#45;&gt;click</title>
<path fill="none" stroke="black" d="M426.48,-229.45C418.01,-221.65 408.62,-212.31 401.03,-202.97 394.18,-194.52 387.59,-184.78 381.86,-175.54"/>
<polygon fill="black" stroke="black" points="384.93,-173.85 376.78,-167.09 378.93,-177.46 384.93,-173.85"/>
<text text-anchor="middle" x="423.41" y="-189.67" font-family="Times,serif" font-size="14.00">&gt;=8.1.3</text>
</g>
<!-- flask&#45;&gt;blinker -->
<g id="edge9" class="edge">
<title>flask&#45;&gt;blinker</title>
<path fill="none" stroke="black" d="M449.28,-220.74C449.28,-208.4 449.28,-193.72 449.28,-180.3"/>
<polygon fill="black" stroke="black" points="452.78,-180.44 449.28,-170.44 445.78,-180.44 452.78,-180.44"/>
<text text-anchor="middle" x="471.41" y="-189.67" font-family="Times,serif" font-size="14.00">&gt;=1.6.2</text>
</g>
<!-- flask&#45;&gt;werkzeug -->
<g id="edge5" class="edge">
<title>flask&#45;&gt;werkzeug</title>
<path fill="none" stroke="black" d="M471.05,-228.62C479.36,-220.71 488.86,-211.52 497.28,-202.97 506.35,-193.76 515.97,-183.56 524.72,-174.13"/>
<polygon fill="black" stroke="black" points="527.24,-176.56 531.45,-166.84 522.09,-171.82 527.24,-176.56"/>
<text text-anchor="middle" x="534.41" y="-189.67" font-family="Times,serif" font-size="14.00">&gt;=3.0.0</text>
</g>
<!-- flask&#45;&gt;jinja2 -->
<g id="edge6" class="edge">
<title>flask&#45;&gt;jinja2</title>
<path fill="none" stroke="black" d="M473.18,-230.62C478.6,-227.05 484.47,-223.6 490.28,-220.97 519.54,-207.71 530.82,-215.77 560.28,-202.97 586.4,-191.61 590.35,-183.9 614.28,-168.47 616.49,-167.04 618.77,-165.57 621.06,-164.09"/>
<polygon fill="black" stroke="black" points="622.72,-167.18 629.2,-158.8 618.91,-161.31 622.72,-167.18"/>
<text text-anchor="middle" x="611.41" y="-189.67" font-family="Times,serif" font-size="14.00">&gt;=3.1.2</text>
</g>
</g>
</svg>

